<svg width="1003" height="464" viewBox="0 0 1003 464" fill="none" xmlns="http://www.w3.org/2000/svg">
<path d="M68.6016 214.954C85.1606 214.954 99.3539 218.971 111.182 227.005C123.01 176.794 196.264 149 260.135 149H262.5C279.059 64.6456 364.219 0.375488 465.939 0.375488C567.658 0.375488 652.818 62.637 669.377 144.983C693.033 120.882 726.151 92.0003 764 92.0003C834.967 92.0003 875.259 144.659 875.259 204.912V206.92C882.356 204.912 891.818 204.912 898.915 204.912C955.689 204.912 1003 245.08 1003 293.283C1003 341.486 955.689 381.654 898.915 381.654C877.625 381.654 856.335 375.629 839.776 365.587C825.583 417.806 771.175 455.966 707.304 455.966C664.724 455.966 626.875 439.899 603.219 413.789C579.564 443.916 536.984 464 489.672 464C432.899 464 385.587 435.882 364.297 393.705C347.738 401.739 328.814 407.764 309.889 407.764C272.04 407.764 238.922 391.697 222.363 365.587C210.535 389.688 182.149 407.764 149.031 407.764C104.085 407.764 68.6016 377.638 68.6016 339.477C68.6016 335.46 68.6016 333.452 68.6016 329.435C30.7526 329.435 0 303.325 0 271.19C0 241.064 30.7526 214.954 68.6016 214.954Z" fill="white"/>
</svg>
