<svg width="286" height="246" viewBox="0 0 286 246" fill="none" xmlns="http://www.w3.org/2000/svg">
<path d="M144.717 89.2879C80.6383 105.852 50.7205 169.319 50.7205 169.319C53.2405 170.356 55.6123 171.754 58.4924 172.94C70.3277 139.078 121.465 86.4518 180.631 91.022C239.946 95.2322 247.53 132.036 247.53 132.036L250.283 131.485C246.597 109.759 205.894 73.6347 144.717 89.2879Z" fill="#FF3100"/>
<path d="M118.774 59.2412C198.395 42.7609 252.672 80.684 267.583 129.346L270.188 129.155C270.188 129.155 250.573 44.8751 144.544 48.7996C41.4799 52.6816 0.912822 154.288 0.912822 154.288C2.86106 154.669 5.31754 154.838 7.26577 155.219C18.6148 133.788 55.3093 72.2687 118.774 59.2412Z" fill="#7D66D1"/>
<path d="M168.009 80.7746C82.1823 81.6484 41.72 165.615 41.72 165.615C44.6 166.8 47.8401 168.134 50.7201 169.32C50.7201 169.32 80.998 106.001 144.716 89.289C205.893 73.6358 246.596 109.76 250.282 131.486L253.395 131.084C251.552 113.063 218.261 80.4114 168.009 80.7746Z" fill="#FC9A3A"/>
<path d="M119.494 66.6954C47.5808 85.9281 15.6305 157.4 15.6305 157.4C18.2987 158.077 20.967 158.755 23.6352 159.432C23.6352 159.432 53.0449 96.177 123.327 73.7468C193.97 51.4648 252.906 93.4111 260.849 130.363L263.962 129.961C255.722 93.7285 200.47 44.8786 119.494 66.6954Z" fill="#82D9F0"/>
<path d="M267.223 129.198C252.672 80.6842 198.183 42.2529 118.414 59.0932C54.8011 72.4807 18.2549 133.64 7.11766 155.579C9.93411 155.897 12.6024 156.574 15.6306 157.4C15.6306 157.4 47.5809 85.9281 119.494 66.6954C200.322 45.2386 255.723 93.7286 263.962 129.961L267.223 129.198Z" fill="#0F92DB"/>
<path d="M123.327 73.7464C52.685 96.0284 23.6354 159.432 23.6354 159.432C26.6636 160.258 30.0518 161.231 33.2919 162.565C33.2919 162.565 68.0587 91.411 140.862 77.1758C213.665 62.9407 257.037 114.057 257.228 130.977L261.21 130.511C253.054 93.0507 194.118 51.1044 123.327 73.7464Z" fill="#A9D333"/>
<path d="M140.65 76.6679C67.8468 90.903 33.0801 162.057 33.0801 162.057C35.9601 163.243 38.6284 163.921 41.5084 165.106C41.5084 165.106 81.9707 81.1399 167.798 80.2661C218.049 79.9028 251.7 112.703 253.035 130.935L256.657 130.321C256.825 113.549 213.453 62.4327 140.65 76.6679Z" fill="#F9FF28"/>
<path opacity="0.5" d="M125.994 52.9514C204.557 41.0876 251.105 78.3547 268.96 129.071L269.828 129.007C269.828 129.007 250.214 44.7269 144.184 48.6514C41.12 52.5334 0.552959 154.14 0.552959 154.14C0.912965 154.288 2.14119 154.372 2.50119 154.521C13.8077 130.125 55.0335 63.7347 125.994 52.9514Z" fill="#828BBE"/>
<path opacity="0.5" d="M101.346 66.8027C161.443 43.5473 246.848 63.1297 265.847 129.474L267.223 129.198C252.672 80.6845 198.183 42.2532 118.414 59.0935C54.8011 72.481 18.2549 133.64 7.11766 155.58C7.83767 155.876 8.70591 155.812 9.42592 156.109C17.8954 140.65 50.2491 86.6058 101.346 66.8027Z" fill="#41A3E5"/>
<path opacity="0.5" d="M115.111 71.2057C178.638 51.8888 243.27 73.8655 263.751 129.452C255.363 93.5798 200.111 44.7299 119.282 66.1866C47.3692 85.4193 15.419 156.891 15.419 156.891C16.139 157.188 17.3672 157.272 18.0872 157.569C27.0013 141.029 56.7293 89.2728 115.111 71.2057Z" fill="#82D9F0"/>
<path opacity="0.5" d="M141.348 71.9028C222.622 56.5236 259.176 117.043 258.478 128.965L258.753 130.342L260.998 130.003C253.054 93.0506 194.118 51.1044 123.476 73.3863C52.8334 95.6683 23.7837 159.072 23.7837 159.072C24.5037 159.368 25.2237 159.665 26.0919 159.601C35.1543 142.702 70.0701 85.5026 141.348 71.9028Z" fill="#B5D46B"/>
<path opacity="0.5" d="M140.65 76.6682C67.8468 90.9034 33.0801 162.058 33.0801 162.058C33.8001 162.354 34.1601 162.502 34.8801 162.799C42.3967 148.631 76.5926 91.1357 142.429 79.5057C207.905 67.7275 246.215 104.55 257.165 130.109C255.681 112.237 212.944 62.6448 140.65 76.6682Z" fill="#FCF370"/>
<path opacity="0.5" d="M148.74 84.6293C205.576 76.4516 242.255 102.919 252.887 131.295L253.247 131.443C251.912 113.21 218.261 80.4107 168.01 80.7739C82.1825 81.6478 41.7202 165.614 41.7202 165.614C42.8002 166.059 43.8802 166.503 44.6003 166.8C54.0226 150.049 91.3949 93.0188 148.74 84.6293Z" fill="#FFB450"/>
<path opacity="0.5" d="M144.716 89.2885C80.6382 105.852 50.7203 169.32 50.7203 169.32C51.4403 169.616 52.5204 170.061 53.2404 170.357C60.8416 154.961 99.3992 87.8938 174.3 87.9948C217.605 88.1402 239.375 108.891 249.668 127.865C242.149 106.244 202.632 74.3978 144.716 89.2885Z" fill="#FF6666"/>
</svg>
